<?xml version="1.0" standalone="no"?>
<!DOCTYPE svg PUBLIC "-//W3C//DTD SVG 20010904//EN"
 "http://www.w3.org/TR/2001/REC-SVG-20010904/DTD/svg10.dtd">
<svg version="1.0" xmlns="http://www.w3.org/2000/svg"
 width="300.000000pt" height="390.000000pt" viewBox="0 0 300.000000 390.000000"
 preserveAspectRatio="xMidYMid meet">
<metadata>
Created by potrace 1.13, written by Peter Selinger 2001-2015
</metadata>
<g transform="translate(0.000000,390.000000) scale(0.100000,-0.100000)"
fill="#FFFFFF" stroke="none">
<path d="M1213 3886 c-158 -30 -300 -92 -373 -162 -25 -24 -81 -68 -125 -96
-97 -64 -238 -203 -283 -280 -103 -174 -182 -458 -182 -650 0 -43 -4 -59 -21
-74 -12 -10 -28 -33 -35 -51 -15 -36 -19 -170 -5 -192 6 -10 -7 -30 -48 -70
-83 -82 -141 -219 -141 -331 0 -57 22 -140 49 -186 18 -30 20 -42 11 -72 -23
-85 -5 -157 57 -223 24 -26 64 -56 89 -66 32 -13 42 -22 38 -33 -94 -225 -155
-508 -156 -726 0 -141 12 -172 76 -203 75 -35 218 -69 398 -96 144 -21 255
-31 636 -61 67 -5 74 -8 87 -34 19 -37 67 -70 130 -92 l50 -16 16 -84 c13 -70
18 -83 35 -82 10 0 188 31 394 67 206 37 411 72 455 80 l80 12 3 48 c3 44 6
49 42 67 67 34 138 121 141 172 0 7 46 35 101 62 184 89 290 224 258 330 -28
92 -122 247 -269 439 l-83 109 57 51 c36 31 67 71 81 102 45 96 25 243 -51
370 -36 58 -36 61 -23 105 16 57 14 171 -5 231 l-14 46 71 21 c86 26 132 53
148 87 23 50 3 71 -167 182 l-160 104 -52 212 c-70 281 -128 472 -160 527 -38
65 -183 211 -269 270 -122 84 -231 127 -439 171 -128 27 -341 34 -442 15z
m342 -21 c203 -33 382 -95 496 -171 72 -47 227 -192 247 -231 10 -18 6 -19
-81 -18 -51 0 -121 -4 -157 -8 l-65 -8 -33 59 c-104 184 -278 321 -474 371
-89 23 -55 26 67 6z m-136 -6 c160 -26 286 -92 406 -214 104 -106 160 -200
187 -316 24 -104 34 -112 17 -14 -6 37 -8 70 -3 75 34 32 229 53 287 31 29
-11 51 -62 102 -245 51 -182 125 -466 125 -481 0 -35 -208 -51 -790 -61 -303
-5 -459 -4 -620 7 -118 8 -362 14 -542 14 l-328 0 6 55 c24 228 111 493 211
643 85 129 265 288 398 355 248 123 550 129 718 13 128 -88 218 -199 337 -418
39 -70 70 -124 70 -120 0 4 -23 53 -51 110 -135 269 -292 441 -455 498 -176
62 -398 41 -598 -57 -53 -26 -64 -29 -50 -13 28 31 111 75 194 103 126 42 261
55 379 35z m1295 -1288 c167 -108 171 -111 162 -146 -14 -57 -141 -87 -435
-104 -371 -22 -653 -11 -1411 54 -460 40 -538 42 -703 19 -64 -9 -121 -14
-125 -10 -11 12 -14 150 -3 166 8 12 40 15 175 15 l165 0 3 40 c4 49 4 49 166
40 l124 -7 -4 -54 -5 -53 51 -6 c28 -3 145 -14 261 -26 229 -22 291 -32 525
-85 85 -20 189 -42 230 -50 232 -47 755 -15 901 55 24 12 35 19 25 16 -184
-52 -268 -63 -541 -72 -235 -7 -279 -2 -591 67 -267 60 -357 74 -579 95 -93 8
-189 18 -212 21 l-42 5 22 45 22 45 45 -5 c306 -37 1471 -27 1572 14 44 17 64
9 202 -79z m-2184 57 c0 -13 -4 -27 -8 -33 -4 -6 -74 -11 -160 -13 -149 -4
-153 -3 -143 15 19 36 37 42 137 46 54 1 116 4 137 5 32 2 37 -1 37 -20z
m-298 -304 c16 -15 27 -16 108 -4 94 13 338 9 349 -7 3 -4 26 -8 51 -8 25 -1
102 -7 172 -15 109 -12 126 -16 125 -31 -1 -10 -5 -15 -9 -13 -9 6 -98 -75
-98 -89 0 -4 10 -1 23 7 44 28 150 38 264 25 l106 -12 -80 -26 c-83 -27 -173
-77 -226 -125 -30 -26 -30 -27 -4 -12 l27 16 0 -57 c1 -32 7 -76 15 -98 8 -22
15 -41 15 -43 0 -1 -12 0 -27 3 -51 11 3 -15 75 -37 106 -31 258 -35 366 -9
49 12 90 20 91 19 28 -35 32 -93 7 -107 -63 -34 -353 -55 -416 -31 -15 5 -26
6 -26 0 0 -13 107 -50 127 -44 14 5 15 4 4 -4 -24 -17 93 -26 172 -13 86 14
162 45 151 62 -5 8 -3 9 5 4 17 -10 78 50 91 91 8 24 7 42 -4 75 -8 24 -13 45
-11 48 3 2 5 -2 6 -10 0 -8 4 -6 9 6 15 34 11 144 -6 176 -8 17 -14 32 -12 33
2 1 25 11 52 21 32 11 54 27 65 46 l16 29 85 -6 c47 -3 140 -12 207 -20 67 -8
127 -14 135 -14 29 0 -18 -20 -52 -21 l-35 -2 40 -7 c34 -7 31 -8 -25 -7 -123
2 -210 -3 -210 -13 0 -5 16 -10 36 -10 30 0 35 -3 29 -17 -13 -35 -17 -122 -7
-152 12 -35 7 -38 -26 -15 -13 9 -26 14 -28 11 -9 -9 98 -85 156 -111 84 -39
166 -56 265 -57 49 0 84 -3 78 -6 -7 -2 -13 -17 -13 -33 0 -42 -21 -56 -94
-64 -106 -11 -269 26 -351 80 -14 9 -28 14 -31 12 -7 -7 97 -75 143 -94 21 -8
52 -21 68 -29 20 -9 57 -13 105 -11 67 3 69 3 20 -4 -48 -6 -50 -7 -17 -8 84
-4 163 -69 154 -126 -3 -18 4 -58 15 -93 20 -61 20 -128 0 -160 -4 -6 -85 -29
-179 -51 -165 -38 -172 -38 -187 -20 -18 21 -35 22 -90 7 -56 -15 -68 0 -53
68 6 29 9 54 6 57 -5 5 -249 -47 -249 -54 0 -5 23 -41 52 -83 17 -24 -6 -42
-62 -51 -34 -5 -41 -11 -46 -34 -6 -28 -10 -30 -128 -55 -67 -15 -128 -27
-137 -27 -37 0 -109 107 -109 162 0 20 -3 19 -38 -14 -102 -100 -258 -88 -360
27 -69 78 -126 216 -123 298 2 55 -35 132 -86 176 -58 52 -150 78 -211 61 -41
-10 -120 -69 -95 -70 6 0 14 4 17 9 7 11 135 -13 174 -33 67 -34 85 -121 58
-268 -15 -79 -105 -407 -139 -504 l-14 -42 93 2 c53 1 88 -2 81 -7 -7 -5 1 -7
20 -5 19 3 30 0 26 -5 -4 -6 3 -8 15 -5 12 4 20 3 17 -2 -7 -12 121 -64 136
-55 8 6 10 4 4 -5 -6 -10 -3 -12 13 -8 12 4 20 2 16 -3 -3 -5 3 -9 14 -9 23 0
122 -40 261 -106 80 -37 101 -51 101 -68 0 -27 17 -8 22 24 2 18 17 32 56 53
29 16 56 26 60 22 4 -3 7 -33 7 -66 l0 -59 40 0 c42 0 91 22 163 73 43 30 72
28 72 -7 0 -35 -36 -83 -92 -120 -62 -43 -51 -46 27 -10 57 27 105 80 105 116
0 9 4 19 9 23 12 7 41 -22 41 -40 0 -27 -21 -70 -43 -88 -12 -10 -16 -16 -9
-12 8 4 -7 -13 -32 -38 -25 -26 -58 -53 -73 -61 l-28 -15 25 -1 c30 0 60 18
118 74 l42 40 0 -27 c0 -15 -5 -27 -12 -27 -6 0 -9 -3 -5 -6 3 -3 -7 -18 -22
-32 -15 -15 -19 -21 -9 -13 27 21 21 8 -9 -20 -14 -13 -23 -18 -18 -10 5 9 3
12 -6 9 -8 -3 -14 -10 -14 -17 0 -14 -33 -41 -49 -41 -6 1 2 8 17 16 41 22 29
26 -28 8 -37 -11 -72 -14 -135 -9 -123 9 -128 9 -124 16 2 4 -5 9 -16 12 -21
5 -60 63 -60 89 0 29 -327 98 -587 123 -331 33 -439 47 -490 64 -29 10 -54 15
-56 12 -2 -3 -2 0 0 8 2 7 -2 20 -9 29 -20 23 -13 214 11 366 34 208 82 371
155 530 41 90 41 117 0 33 l-28 -56 -35 15 c-105 44 -152 145 -119 255 10 35
9 42 -10 62 -35 37 -65 117 -70 188 -8 114 43 244 125 319 48 45 50 46 75 24z
m1182 -206 c-31 -96 -17 -173 39 -225 49 -44 100 -52 151 -24 45 24 54 23 29
-7 -38 -45 -335 -75 -485 -49 -40 7 -49 13 -64 45 -13 26 -19 60 -19 111 0 74
0 75 33 94 67 39 194 77 260 77 61 0 63 -1 56 -22z m943 -59 c6 -96 82 -166
169 -156 l43 4 -15 -36 c-8 -20 -27 -49 -42 -65 l-27 -28 -100 5 c-101 6 -210
31 -296 68 -42 18 -48 25 -58 64 -14 55 -14 94 0 134 l11 31 101 1 c56 0 120
4 142 8 69 15 70 14 72 -30z m-1452 -1053 c62 -22 205 -31 265 -17 42 9 47 8
75 -18 17 -16 43 -35 60 -44 28 -14 30 -20 55 -161 l26 -146 -33 -11 c-19 -6
-47 -22 -63 -36 l-30 -25 -158 70 c-293 131 -430 182 -485 182 -24 0 -28 3
-22 18 5 9 33 91 64 182 l56 165 70 -71 c52 -52 83 -75 120 -88z m1893 -15
c65 -56 132 -140 132 -166 0 -44 -137 -161 -261 -222 -54 -27 -56 -29 -51 -62
l5 -34 -49 28 c-27 16 -63 37 -81 47 -30 18 -34 18 -60 3 -27 -16 -27 -16 -5
0 17 14 22 28 22 61 0 51 10 54 58 18 30 -23 33 -24 23 -6 -6 12 -16 24 -21
27 -12 7 55 107 102 152 23 22 52 37 93 47 l60 14 -48 1 c-51 1 -78 -9 -114
-41 -19 -18 -24 -19 -42 -6 -23 16 -121 126 -121 135 0 3 18 -15 41 -41 22
-25 47 -46 55 -46 30 0 93 41 133 86 22 26 41 51 41 55 0 19 23 6 88 -50z
m-793 -431 c-91 -181 -108 -210 -128 -210 -21 0 -15 15 83 210 90 180 108 210
128 210 20 0 14 -17 -83 -210z"/>
<path d="M2070 1590 c8 -5 26 -10 40 -10 24 0 100 -43 100 -57 0 -3 -7 0 -15
7 -13 11 -14 10 -10 -2 3 -8 -3 -25 -13 -38 -18 -23 -21 -23 -90 -12 -86 15
-162 15 -162 2 0 -5 -13 -7 -29 -4 -34 7 -222 -38 -297 -71 -50 -22 -184 -121
-184 -135 0 -4 33 10 73 30 39 21 104 46 142 55 39 10 72 20 75 24 3 3 12 6
20 6 38 2 141 18 144 24 2 3 53 6 113 6 84 -1 115 -5 141 -19 31 -17 34 -17
70 1 29 14 40 27 51 62 18 58 4 87 -59 119 -43 22 -142 33 -110 12z"/>
</g>
</svg>
